HIERARCHY
ROOT Hips
{
	OFFSET -0.001795 -0.223333 0.028219
	CHANNELS 6 Xposition Yposition Zposition Zrotation Yrotation Xrotation 
	JOINT LeftUpLeg
	{
		OFFSET 0.069520 -0.091406 -0.006815
		CHANNELS 3 Zrotation Yrotation Xrotation
		JOINT LeftLeg
		{
			OFFSET 0.034277 -0.375199 -0.004496
			CHANNELS 3 Zrotation Yrotation Xrotation
			JOINT LeftFoot
			{
				OFFSET -0.013596 -0.397961 -0.043693
				CHANNELS 3 Zrotation Yrotation Xrotation
				JOINT LeftToe
				{
					OFFSET 0.026358 -0.055791 0.119288
					CHANNELS 3 Zrotation Yrotation Xrotation
					End Site
					{
						OFFSET 0.000000 0.000000 0.000000
					}
				}
			}
		}
	}
	JOINT RightUpLeg
	{
		OFFSET -0.067670 -0.090522 -0.004320
		CHANNELS 3 Zrotation Yrotation Xrotation
		JOINT RightLeg
		{
			OFFSET -0.038290 -0.382569 -0.008850
			CHANNELS 3 Zrotation Yrotation Xrotation
			JOINT RightFoot
			{
				OFFSET 0.015774 -0.398415 -0.042312
				CHANNELS 3 Zrotation Yrotation Xrotation
				JOINT RightToe
				{
					OFFSET -0.025372 -0.048144 0.123348
					CHANNELS 3 Zrotation Yrotation Xrotation
					End Site
					{
						OFFSET 0.000000 0.000000 0.000000
					}
				}
			}
		}
	}
	JOINT Spine
	{
		OFFSET -0.002533 0.108963 -0.026696
		CHANNELS 3 Zrotation Yrotation Xrotation
		JOINT Spine1
		{
			OFFSET 0.005487 0.135180 0.001092
			CHANNELS 3 Zrotation Yrotation Xrotation
			JOINT Spine2
			{
				OFFSET 0.001457 0.052922 0.025425
				CHANNELS 3 Zrotation Yrotation Xrotation
				JOINT Neck
				{
					OFFSET -0.002778 0.213870 -0.042857
					CHANNELS 3 Zrotation Yrotation Xrotation
					JOINT Head
					{
						OFFSET 0.005152 0.064970 0.051349
						CHANNELS 3 Zrotation Yrotation Xrotation
						End Site
						{
							OFFSET 0.000000 0.000000 0.000000
						}
					}
				}
				JOINT LeftShoulder
				{
					OFFSET 0.078845 0.121749 -0.034090
					CHANNELS 3 Zrotation Yrotation Xrotation
					JOINT LeftArm
					{
						OFFSET 0.090977 0.030469 -0.008868
						CHANNELS 3 Zrotation Yrotation Xrotation
						JOINT LeftForeArm
						{
							OFFSET 0.259612 -0.012772 -0.027456
							CHANNELS 3 Zrotation Yrotation Xrotation
							JOINT LeftHand
							{
								OFFSET 0.249234 0.008986 -0.001171
								CHANNELS 3 Zrotation Yrotation Xrotation
								End Site
								{
									OFFSET 0.000000 0.000000 0.000000
								}
							}
						}
					}
				}
				JOINT RightShoulder
				{
					OFFSET -0.081759 0.118833 -0.038615
					CHANNELS 3 Zrotation Yrotation Xrotation
					JOINT RightArm
					{
						OFFSET -0.096012 0.032551 -0.009143
						CHANNELS 3 Zrotation Yrotation Xrotation
						JOINT RightForeArm
						{
							OFFSET -0.253742 -0.013329 -0.021401
							CHANNELS 3 Zrotation Yrotation Xrotation
							JOINT RightHand
							{
								OFFSET -0.255298 0.007772 -0.005559
								CHANNELS 3 Zrotation Yrotation Xrotation
								End Site
								{
									OFFSET 0.000000 0.000000 0.000000
								}
							}
						}
					}
				}
			}
		}
	}
}
MOTION
Frames: 13
Frame Time: 0.050000
0.013711 0.953474 -0.021358 1.792275 -7.859153 6.250565 0.053587 0.044495 0.535316 0.097850 0.423192 -10.739716 -0.840280 3.081721 15.081693 0.000000 0.000000 0.000000 -2.532697 0.005335 1.882406 -0.925493 -0.374627 -11.574172 -0.483707 -7.870767 14.812550 0.000000 0.000000 0.000000 5.282092 -0.319022 2.061216 -2.269678 1.093416 -26.948029 -0.690418 8.979963 30.001138 24.171638 -7.359591 -41.232069 0.000000 0.000000 0.000000 20.400618 -16.990524 3.683188 -12.541836 -57.336661 0.142445 94.243173 -42.080991 -42.071154 0.000000 0.000000 0.000000 -6.868598 -1.362889 -0.457902 22.115068 32.921125 1.581100 -81.644821 -2.338831 6.322706 0.000000 0.000000 0.000000 
0.013222 0.953498 -0.022559 1.632187 -7.600948 6.067540 0.256709 0.055051 0.682338 0.165187 0.421355 -10.777115 -0.957227 2.925176 15.046564 0.000000 0.000000 0.000000 -2.303991 -0.015310 1.896269 -0.894601 -0.367434 -11.264574 -0.605818 -8.022333 14.729393 0.000000 0.000000 0.000000 5.285013 -0.345286 2.402930 -2.322042 1.112105 -27.219915 -0.597947 9.343798 30.289583 24.323897 -7.332122 -41.484165 0.000000 0.000000 0.000000 20.471686 -17.517492 3.815902 -11.247221 -58.116177 -0.607229 91.364902 -41.155159 -39.511663 0.000000 0.000000 0.000000 -6.457686 -1.189715 -0.455074 21.877032 33.148892 1.588820 -81.153804 -2.843204 6.889093 0.000000 0.000000 0.000000 
0.012827 0.953476 -0.023724 1.532935 -7.448618 5.940082 0.334001 0.054080 0.686126 0.309736 0.410966 -10.667638 -1.006714 2.849762 14.976656 0.000000 0.000000 0.000000 -2.161702 -0.019230 1.783031 -0.862614 -0.356735 -10.879005 -0.699236 -8.122865 14.590916 0.000000 0.000000 0.000000 5.201302 -0.341764 2.426784 -2.368907 1.115145 -26.903186 -0.557475 9.547344 30.124363 23.948818 -7.080467 -41.648210 0.000000 0.000000 0.000000 20.618567 -17.747748 3.890423 -10.050934 -58.976910 -1.251759 87.361681 -39.993535 -36.110749 0.000000 0.000000 0.000000 -6.148356 -0.895819 -0.386965 22.146581 33.298782 1.691322 -81.526974 -3.209282 7.381539 0.000000 0.000000 0.000000 
0.012672 0.953232 -0.024870 1.329978 -7.250025 5.873490 0.385758 0.038019 0.525217 0.680526 0.384102 -10.371910 -1.022825 2.783220 14.735078 0.000000 0.000000 0.000000 -1.975599 -0.026750 1.683395 -0.725181 -0.349542 -10.602576 -0.801115 -8.240941 14.480364 0.000000 0.000000 0.000000 5.207127 -0.354345 2.584314 -2.269799 1.094044 -26.872194 -0.455114 9.887706 30.026892 23.851103 -7.003184 -41.572427 0.000000 0.000000 0.000000 20.923739 -17.858795 3.952203 -9.220250 -60.168966 -1.824740 85.153453 -39.084183 -34.140408 0.000000 0.000000 0.000000 -5.889701 -0.785634 -0.384095 22.711066 33.403372 1.852424 -82.433363 -3.308202 7.835116 0.000000 0.000000 0.000000 
0.012784 0.953243 -0.026149 1.370483 -6.707151 5.831374 0.405350 0.010601 0.235560 0.666419 0.364993 -10.047745 -1.263111 2.447082 14.627081 0.000000 0.000000 0.000000 -1.945985 -0.028962 1.645130 -0.742646 -0.350389 -10.474787 -1.070697 -8.641746 14.494750 0.000000 0.000000 0.000000 5.197341 -0.353805 2.582729 -2.324181 1.107560 -26.760637 -0.408858 9.770768 29.862724 23.256411 -6.749437 -41.420031 0.000000 0.000000 0.000000 21.281042 -18.086404 3.991442 -7.942218 -61.331670 -2.571880 82.818550 -38.035717 -32.006603 0.000000 0.000000 0.000000 -5.818677 -0.664274 -0.361613 23.328810 33.762122 2.062908 -83.606561 -3.489707 8.309994 0.000000 0.000000 0.000000 
0.013160 0.953058 -0.027714 1.394612 -6.392893 5.828724 0.274742 -0.036029 -0.287644 0.885533 0.321614 -9.375051 -1.330267 2.300659 14.350212 0.000000 0.000000 0.000000 -1.948093 -0.007783 1.342763 -0.748385 -0.338661 -10.041629 -1.275043 -8.909489 14.328143 0.000000 0.000000 0.000000 5.114644 -0.351521 2.598727 -1.959954 1.032252 -26.717907 -0.407288 9.606146 30.063095 23.146302 -6.779448 -41.142712 0.000000 0.000000 0.000000 21.943797 -18.061990 3.915230 -7.160113 -62.015136 -3.022541 81.728823 -36.876889 -30.451417 0.000000 0.000000 0.000000 -5.999000 -0.869778 -0.433381 24.213237 34.281214 2.337487 -85.296931 -3.363910 8.568073 0.000000 0.000000 0.000000 
0.013703 0.952917 -0.029365 1.482890 -5.918051 5.943266 0.211924 -0.077858 -0.746921 0.862208 0.306919 -9.098330 -1.536787 2.009131 14.261808 0.000000 0.000000 0.000000 -2.055087 0.027095 0.946231 -0.680488 -0.329386 -9.652839 -1.557677 -9.311503 14.221439 0.000000 0.000000 0.000000 5.195135 -0.361805 2.648735 -2.043040 1.057903 -26.873468 -0.293499 9.213094 30.082873 22.673047 -6.598177 -41.037350 0.000000 0.000000 0.000000 22.389545 -18.154587 3.864873 -7.111058 -62.791146 -3.048559 80.823931 -37.118195 -30.114410 0.000000 0.000000 0.000000 -6.301567 -1.082361 -0.495173 25.546038 34.525283 2.670408 -86.482250 -2.622974 8.184192 0.000000 0.000000 0.000000 
0.014191 0.952647 -0.030912 1.574419 -5.591566 5.957886 0.044504 -0.112224 -1.134358 0.996605 0.281245 -8.710753 -1.650249 1.821325 14.095097 0.000000 0.000000 0.000000 -2.134676 0.048252 0.709028 -0.693893 -0.321849 -9.375443 -1.764440 -9.596982 14.091880 0.000000 0.000000 0.000000 5.156988 -0.353313 2.562252 -1.830013 1.014330 -26.782338 -0.335671 8.928963 30.126265 21.755605 -6.310028 -40.558194 0.000000 0.000000 0.000000 22.556488 -17.952768 3.817224 -7.678024 -63.187728 -2.740907 80.218232 -37.596664 -30.138545 0.000000 0.000000 0.000000 -6.627971 -1.291664 -0.557307 26.774645 34.769515 2.991921 -87.138267 -1.555639 7.430912 0.000000 0.000000 0.000000 
0.014281 0.952649 -0.032203 1.570110 -5.710840 5.847560 -0.069012 -0.110818 -1.127270 1.191769 0.269498 -8.634732 -1.579777 1.912870 14.083552 0.000000 0.000000 0.000000 -2.179859 0.077202 0.359156 -0.627543 -0.298253 -8.713246 -1.768460 -9.553846 13.837294 0.000000 0.000000 0.000000 5.232339 -0.369422 2.739453 -1.755462 1.000143 -26.898665 -0.321310 8.762230 30.212580 21.359561 -6.314447 -40.006877 0.000000 0.000000 0.000000 22.060555 -17.852987 3.811476 -9.435576 -62.679087 -1.707399 80.594071 -39.006162 -31.392918 0.000000 0.000000 0.000000 -6.309041 -1.046193 -0.462297 27.484766 35.128529 3.181895 -87.623671 -0.008356 6.031157 0.000000 0.000000 0.000000 
0.013786 0.952908 -0.033394 1.648030 -5.919741 5.853131 -0.214080 -0.110691 -1.132478 1.337238 0.269962 -8.745364 -1.510485 2.052966 14.274381 0.000000 0.000000 0.000000 -2.344153 0.090553 0.314621 -0.454134 -0.304385 -8.848073 -1.650469 -9.394607 13.919608 0.000000 0.000000 0.000000 5.204641 -0.367121 2.729941 -1.818556 1.020465 -27.222107 -0.205612 8.706402 30.558945 20.321569 -5.958800 -39.690318 0.000000 0.000000 0.000000 21.346161 -17.698374 3.827368 -10.653248 -61.753794 -1.017943 80.822280 -39.769546 -32.088871 0.000000 0.000000 0.000000 -6.303600 -1.174508 -0.490341 28.403243 35.665180 3.471736 -87.312294 1.027676 5.078419 0.000000 0.000000 0.000000 
0.012530 0.953273 -0.034698 1.596932 -6.339465 5.826777 -0.162538 -0.103889 -1.051234 1.444759 0.273829 -8.881225 -1.334010 2.340286 14.495997 0.000000 0.000000 0.000000 -2.288811 0.094251 0.248326 -0.368460 -0.305140 -8.916808 -1.417197 -9.062051 13.991362 0.000000 0.000000 0.000000 5.224407 -0.359997 2.649407 -1.912052 1.034928 -27.136708 -0.344686 8.574695 30.593984 19.667958 -5.853988 -39.115632 0.000000 0.000000 0.000000 20.783535 -17.325339 3.769363 -11.306125 -60.275555 -0.563077 80.163362 -39.174591 -31.175276 0.000000 0.000000 0.000000 -6.087033 -0.641313 -0.296558 28.913824 36.276855 3.684447 -86.408602 1.982685 3.986569 0.000000 0.000000 0.000000 
0.010614 0.953680 -0.036150 1.628358 -6.687674 5.734020 -0.022835 -0.085799 -0.846487 1.325294 0.293761 -9.143944 -1.228946 2.550679 14.815184 0.000000 0.000000 0.000000 -2.175115 0.093684 0.188421 -0.453711 -0.300191 -8.871296 -1.238038 -8.797572 13.993986 0.000000 0.000000 0.000000 5.202573 -0.375715 2.876517 -2.145404 1.095347 -27.680715 -0.098393 8.849617 31.219477 19.157447 -5.661202 -39.040044 0.000000 0.000000 0.000000 20.175254 -17.048502 3.780701 -10.767535 -59.543208 -0.884299 80.040264 -37.919655 -30.136638 0.000000 0.000000 0.000000 -5.867162 -0.970005 -0.404179 29.042259 36.800977 3.801904 -85.489638 3.215507 2.908244 0.000000 0.000000 0.000000 
0.008297 0.953778 -0.037739 1.419495 -7.240593 5.781960 0.219209 -0.090471 -0.873491 1.513463 0.289442 -9.175762 -0.941644 2.956566 14.935510 0.000000 0.000000 0.000000 -1.914402 0.098822 -0.036111 -0.317315 -0.296548 -8.811086 -0.951420 -8.358178 13.951698 0.000000 0.000000 0.000000 5.190204 -0.376128 2.885735 -2.266756 1.119970 -27.853935 -0.122350 9.099546 31.384033 18.608059 -5.433022 -39.039032 0.000000 0.000000 0.000000 19.488768 -16.633470 3.765975 -10.509656 -58.332928 -0.995198 80.353267 -35.811838 -28.590841 0.000000 0.000000 0.000000 -5.575997 -0.545924 -0.266331 28.743411 37.051377 3.754395 -83.893732 4.707654 1.489429 0.000000 0.000000 0.000000 
